# xmcd
#
# Track frame offsets: 
#        150
#        24101
#        44970
#        67047
#        87693
#        111705
#        129486
#        150310
#        174553
#        193915
#        227490
#        251579
#        271964
#        296245
#        318731
#
# Disc length: 4597 seconds
#
# Revision: 2
# Processed by: cddbd v1.5.2PL0 Copyright (c) Steve Scherf et al.
# Submitted via: ExactAudioCopy v1.3
#
DISCID=e711f30f
DTITLE=The Blues Company - Ain't Nothing But .... [Limited Deluxe Edit
DTITLE=ion] [CD]
DYEAR=2015
DGENRE=Blues
TTITLE0=My Guitar And Me [live]
TTITLE1=The Blues Been Good To Me [live]
TTITLE2=Ol' What's Her Name [live]
TTITLE3=Bad Decision [live]
TTITLE4=If I Only Could [live]
TTITLE5=The Mirror [live]
TTITLE6=Keep On Singin' The Blues [live]
TTITLE7=Plastic People [live]
TTITLE8=Mr. TNT [live]
TTITLE9=You Drive Me Crazy [live]
TTITLE10=No Idea [live]
TTITLE11=Drivin' Through Texas [live]
TTITLE12=(I'm Just An) Ol' Blues Singer [live]
TTITLE13=Things Won't Be The Same [live]
TTITLE14=Till The Lights Go Out [live]
EXTD=
EXTT0=
EXTT1=
EXTT2=
EXTT3=
EXTT4=
EXTT5=
EXTT6=
EXTT7=
EXTT8=
EXTT9=
EXTT10=
EXTT11=
EXTT12=
EXTT13=
EXTT14=
PLAYORDER=
